<svg xmlns="http://www.w3.org/2000/svg" viewBox="0 0 32 32">
  <ellipse cx="16" cy="29.5" rx="10" ry="2" fill="#EDDCC4" opacity="0.7"/>
  <path d="M 3 20 C 2 12 7 7 16 7 C 25 7 30 12 29 20 C 28 27 22 30 16 30 C 10 30 4 27 3 20 Z" fill="#F4E2C9"/>
  <ellipse cx="16" cy="23" rx="7" ry="5" fill="#FBF3E2"/>
  <ellipse cx="8.5" cy="21" rx="2.5" ry="1.5" fill="#FFA8B5" opacity="0.45"/>
  <ellipse cx="23.5" cy="21" rx="2.5" ry="1.5" fill="#FFA8B5" opacity="0.45"/>
  <ellipse cx="12" cy="16" rx="3" ry="3.5" fill="white"/>
  <ellipse cx="20" cy="16" rx="3" ry="3.5" fill="white"/>
  <circle cx="12.8" cy="16" r="2" fill="#2C1810"/>
  <circle cx="20.8" cy="16" r="2" fill="#2C1810"/>
  <circle cx="14" cy="14.5" r="0.7" fill="white"/>
  <circle cx="22" cy="14.5" r="0.7" fill="white"/>
  <path d="M 12.5 23 Q 16 26 19.5 23" stroke="#C4967A" stroke-width="1.3" fill="none" stroke-linecap="round"/>
</svg>
